HIERARCHY
ROOT Hips
{
	OFFSET -3.958830 18.904000 13.208200
	CHANNELS 6 Xposition Yposition Zposition Zrotation Yrotation Xrotation 
	JOINT LHipJoint
	{
		OFFSET 0.000000 0.000000 0.000000
		CHANNELS 3 Zrotation Yrotation Xrotation
		JOINT LeftUpLeg
		{
			OFFSET 1.800000 -1.400000 0.085000
			CHANNELS 3 Zrotation Yrotation Xrotation
			JOINT LeftLeg
			{
				OFFSET 2.215000 -6.000000 0.000000
				CHANNELS 3 Zrotation Yrotation Xrotation
				JOINT LeftFoot
				{
					OFFSET 2.500000 -6.900000 0.000000
					CHANNELS 3 Zrotation Yrotation Xrotation
					JOINT LeftToeBase
					{
						OFFSET 0.200000 -0.500000 1.950000
						CHANNELS 3 Zrotation Yrotation Xrotation
						End Site
						{
							OFFSET 0.000000 0.000000 0.000000
						}
					}
				}
			}
		}
	}
	JOINT RHipJoint
	{
		OFFSET 0.000000 0.000000 0.000000
		CHANNELS 3 Zrotation Yrotation Xrotation
		JOINT RightUpLeg
		{
			OFFSET -1.800000 -1.400000 0.085000
			CHANNELS 3 Zrotation Yrotation Xrotation
			JOINT RightLeg
			{
				OFFSET -2.215000 -6.000000 0.000000
				CHANNELS 3 Zrotation Yrotation Xrotation
				JOINT RightFoot
				{
					OFFSET -2.500000 -6.900000 0.000000
					CHANNELS 3 Zrotation Yrotation Xrotation
					JOINT RightToeBase
					{
						OFFSET -0.200000 -0.500000 1.950000
						CHANNELS 3 Zrotation Yrotation Xrotation
						End Site
						{
							OFFSET 0.000000 0.000000 0.000000
						}
					}
				}
			}
		}
	}
	JOINT LowerBack
	{
		OFFSET 0.000000 0.000000 0.000000
		CHANNELS 3 Zrotation Yrotation Xrotation
		JOINT Spine
		{
			OFFSET -0.087000 1.940000 -0.288900
			CHANNELS 3 Zrotation Yrotation Xrotation
			JOINT Spine1
			{
				OFFSET 0.000000 1.950000 0.060000
				CHANNELS 3 Zrotation Yrotation Xrotation
				JOINT Neck
				{
					OFFSET 0.000000 0.000000 0.000000
					CHANNELS 3 Zrotation Yrotation Xrotation
					JOINT Neck1
					{
						OFFSET 0.000000 1.600000 0.340000
						CHANNELS 3 Zrotation Yrotation Xrotation
						JOINT Head
						{
							OFFSET 0.000000 1.667000 -0.240000
							CHANNELS 3 Zrotation Yrotation Xrotation
							End Site
							{
								OFFSET 0.000000 0.000000 0.000000
							}
						}
					}
				}
				JOINT LeftShoulder
				{
					OFFSET 0.000000 0.000000 0.000000
					CHANNELS 3 Zrotation Yrotation Xrotation
					JOINT LeftArm
					{
						OFFSET 2.700000 1.550000 -0.730000
						CHANNELS 3 Zrotation Yrotation Xrotation
						JOINT LeftForeArm
						{
							OFFSET 5.450000 0.000000 0.000000
							CHANNELS 3 Zrotation Yrotation Xrotation
							JOINT LeftHand
							{
								OFFSET 3.450000 0.000000 0.000000
								CHANNELS 3 Zrotation Yrotation Xrotation
								JOINT LeftHandIndex1
								{
									OFFSET 0.750000 0.000000 0.000000
									CHANNELS 3 Zrotation Yrotation Xrotation
									End Site
									{
										OFFSET 0.000000 0.000000 0.000000
									}
								}
							}
						}
					}
				}
				JOINT RightShoulder
				{
					OFFSET 0.000000 0.000000 0.000000
					CHANNELS 3 Zrotation Yrotation Xrotation
					JOINT RightArm
					{
						OFFSET -2.700000 1.550000 -0.730000
						CHANNELS 3 Zrotation Yrotation Xrotation
						JOINT RightForeArm
						{
							OFFSET -5.450000 0.000000 0.000000
							CHANNELS 3 Zrotation Yrotation Xrotation
							JOINT RightHand
							{
								OFFSET -3.450000 0.000000 0.000000
								CHANNELS 3 Zrotation Yrotation Xrotation
								JOINT RightHandIndex1
								{
									OFFSET -0.750000 0.000000 0.000000
									CHANNELS 3 Zrotation Yrotation Xrotation
									End Site
									{
										OFFSET 0.000000 0.000000 0.000000
									}
								}
							}
						}
					}
				}
			}
		}
	}
}
MOTION
Frames: 13
Frame Time: 0.016667
-0.475390 16.792400 -1.602100 -8.253664 -6.453295 -1.852829 -15.437329 11.976656 3.610237 20.173167 -1.545013 -31.066094 -7.970788 13.309578 37.234239 -0.008505 8.235957 1.696603 0.515640 0.024150 0.284090 18.242085 -8.966826 4.372583 -13.220039 10.891184 -33.236504 27.404836 -22.175465 48.286154 -1.803236 -10.180725 1.191053 -0.030020 0.360020 0.260880 -3.144897 -1.890787 -9.135565 1.219460 1.763472 20.437886 -0.105056 2.849063 1.624950 0.306852 -0.265746 -10.522293 -3.070297 2.884638 45.498977 6.994490 -1.103720 -4.898020 -21.614107 -12.998342 5.418488 -45.779780 -0.923882 -8.212028 -53.526787 -33.553803 10.603227 -3.625921 3.242024 0.710040 0.122880 -0.081640 0.316180 21.626658 15.668173 5.656847 55.482755 7.871810 -8.848107 31.339788 28.507299 3.619686 1.965440 -1.535772 -0.181610 0.227140 -0.051270 -0.237980 
-0.508830 16.896000 -1.624860 -9.295443 -5.861956 -2.583662 -15.389779 12.278363 3.011795 17.236604 -1.523722 -29.940284 -2.160887 10.335819 36.734643 -0.219253 7.197911 2.050663 0.531060 0.023620 0.338870 18.246306 -8.997773 4.797241 -12.173205 12.181938 -34.155196 30.880702 -25.384528 51.152942 -2.150156 -11.162272 0.926469 -0.029110 0.317540 0.257590 -3.193747 -1.917022 -9.074635 0.818336 2.036739 21.466237 -0.531914 3.120259 1.547443 0.504821 0.692956 -10.901564 -1.194640 2.210400 47.121010 7.086820 -0.685930 -5.896220 -21.484465 -14.175845 5.687895 -44.710363 -1.259553 -8.230887 -55.118611 -34.310801 11.401166 -3.607391 3.217135 0.765210 0.092870 -0.046570 0.290640 21.094604 16.214853 5.899705 56.751986 8.167289 -9.204147 31.087467 28.797641 3.485134 1.961628 -1.502298 -0.194800 0.234450 -0.051830 -0.274750 
-0.537920 16.975130 -1.640870 -10.512612 -4.784386 -3.022625 -15.345010 12.461601 2.523221 14.754988 -1.498079 -28.776234 2.781876 7.574324 34.723881 -0.386728 6.182249 2.426857 0.535160 0.017320 0.378940 18.270349 -8.974912 5.203490 -11.386717 13.268548 -35.566369 35.135063 -29.350497 53.599054 -2.509051 -12.185882 0.675513 -0.031140 0.296080 0.257050 -3.280499 -1.909769 -9.045584 0.921317 2.027033 22.273550 -1.188810 3.159589 1.468186 0.762887 1.716923 -11.201570 0.887785 1.329647 47.930875 6.835770 -0.309130 -6.551460 -21.381476 -15.286117 5.900632 -43.549944 -1.714487 -8.118042 -56.744290 -34.866965 12.201368 -3.605069 3.192145 0.799810 0.081610 -0.023140 0.273350 20.407239 16.524362 6.096530 57.926010 8.326569 -9.559779 31.423350 29.208641 3.462488 1.959668 -1.481115 -0.207920 0.245810 -0.052540 -0.300310 
-0.559030 17.035900 -1.639890 -11.490705 -3.111549 -3.489343 -15.298606 12.603382 2.135372 12.403342 -1.534803 -27.074779 6.945994 5.159372 31.534992 -0.537449 5.247602 2.787366 0.518550 -0.005260 0.390170 18.292706 -8.986135 5.513161 -11.169955 13.593215 -36.556427 40.131007 -33.591240 54.621828 -2.800838 -13.001517 0.494236 -0.035710 0.293080 0.253120 -3.375507 -1.892201 -9.008132 1.115526 1.749509 22.905420 -2.067142 2.925472 1.365080 1.039909 2.631989 -11.397010 2.801472 0.546341 48.444255 6.539560 0.012590 -7.097120 -21.505483 -16.135947 6.022132 -42.159852 -2.008794 -7.890777 -58.435825 -34.978727 12.852785 -3.620019 3.160654 0.828910 0.084400 -0.016490 0.252510 19.889098 16.553810 6.212868 58.858094 8.357800 -9.814895 32.091722 29.418313 3.501769 1.948847 -1.450661 -0.231830 0.265320 -0.031830 -0.323890 
-0.580310 17.082350 -1.639170 -12.441622 -1.249335 -3.770311 -15.249987 12.643970 1.914616 11.032131 -1.568569 -25.604158 9.545792 3.632505 28.152850 -0.641327 4.575002 3.060444 0.507880 -0.025150 0.398540 18.325199 -9.008417 5.705907 -10.816648 13.465651 -37.249287 45.045670 -37.295538 54.394210 -3.001647 -13.483973 0.407922 -0.042230 0.294960 0.246610 -3.497569 -1.816197 -9.007121 1.624916 1.307253 23.431088 -3.189183 2.619655 1.269072 1.254616 3.411843 -11.679078 4.400947 -0.211913 48.829697 6.580960 0.060780 -7.424790 -21.534844 -17.030305 6.211544 -40.537803 -2.191300 -7.656861 -60.718438 -35.326149 13.852229 -3.623709 3.139941 0.855810 0.086200 -0.014340 0.242440 19.351554 16.644498 6.445044 59.795044 8.141815 -10.266596 32.954142 30.163115 3.656728 1.936059 -1.431396 -0.253280 0.283650 -0.020190 -0.342230 
-0.599660 17.117480 -1.642060 -13.166343 0.366568 -3.910707 -15.211138 12.642398 1.794471 10.526522 -1.567488 -24.447166 10.868911 2.837807 25.338033 -0.710519 4.149672 3.242074 0.487090 -0.045790 0.395580 18.352493 -9.043608 5.804989 -10.512850 13.106122 -37.657687 49.211782 -39.966438 53.407041 -3.105965 -13.668713 0.385809 -0.046880 0.306130 0.228540 -3.600541 -1.718131 -9.014033 2.036658 0.963400 23.852166 -4.176331 2.431566 1.215440 1.389358 4.016304 -11.964533 5.686894 -0.739713 48.989232 6.920330 0.094460 -7.718560 -21.552093 -17.920081 6.372106 -39.161931 -2.524911 -7.423790 -62.084879 -35.600109 14.543359 -3.627955 3.106343 0.875010 0.086600 -0.016290 0.233490 18.965782 16.925936 6.747090 60.556207 7.912771 -10.712675 33.477794 30.842261 3.736076 1.928807 -1.404881 -0.280760 0.314360 -0.006050 -0.352630 
-0.614890 17.142700 -1.648270 -13.779680 1.629346 -4.035211 -15.173794 12.635294 1.730660 10.675896 -1.525833 -23.539108 11.175267 2.526595 23.147923 -0.785410 3.890651 3.354425 0.482330 -0.061190 0.407910 18.376652 -9.089004 5.847861 -10.344841 12.686731 -37.745505 52.668055 -41.696247 51.979310 -3.151343 -13.657698 0.410844 -0.043220 0.307300 0.204400 -3.696056 -1.625008 -9.030313 2.545178 0.613651 24.364779 -5.186296 2.310521 1.120554 1.540538 4.456781 -12.279320 6.653442 -1.062755 49.352958 7.437740 0.165390 -8.473240 -21.710639 -18.840305 6.553299 -38.097066 -2.691913 -7.326356 -62.869941 -35.729692 14.880280 -3.617776 3.061072 0.916720 0.076860 -0.015460 0.226460 18.680700 17.404309 7.060492 60.949956 7.799434 -11.021333 33.783759 31.151980 3.743891 1.910878 -1.368985 -0.318500 0.351300 0.003280 -0.376840 
-0.636200 17.157920 -1.650590 -14.039004 2.283488 -4.003622 -15.155002 12.613338 1.692324 11.244063 -1.421671 -22.906425 10.735699 2.536216 21.467041 -0.835237 3.731594 3.416025 0.486910 -0.071370 0.426060 18.388036 -9.122449 5.867040 -10.429945 12.467276 -37.764157 55.127397 -42.509602 50.648231 -3.161448 -13.576760 0.428598 -0.041290 0.295650 0.203800 -3.741648 -1.522433 -9.035769 2.573075 0.654931 24.614948 -5.881161 2.455952 1.011328 1.666316 4.821053 -12.469907 7.446721 -1.412981 49.366697 7.564980 0.223990 -9.010420 -21.855201 -19.343386 6.610666 -37.150053 -2.763018 -7.192191 -63.763362 -35.572466 15.119393 -3.607620 3.055218 0.946090 0.066610 -0.008680 0.218540 18.485303 17.670223 7.292237 61.376910 7.606992 -11.320498 33.969965 31.420506 3.732840 1.901423 -1.361226 -0.334220 0.354950 0.006950 -0.396500 
-0.659830 17.166600 -1.649780 -14.065302 2.702888 -3.986851 -15.153006 12.588766 1.702331 12.320137 -1.330423 -22.707227 9.293356 2.926915 20.743876 -0.855391 3.692028 3.411117 0.497340 -0.057260 0.441450 18.384228 -9.133972 5.846220 -10.727046 12.202801 -37.470693 56.595325 -42.594319 49.399854 -3.141026 -13.422880 0.463557 -0.034340 0.271430 0.194690 -3.739195 -1.482257 -9.043251 2.167262 0.793298 24.843743 -6.227332 2.588866 0.977491 1.698309 5.012314 -12.612114 7.870469 -1.410973 49.574125 8.059860 0.455980 -9.840050 -21.803010 -19.639924 6.630172 -36.807024 -2.958925 -7.138929 -64.051881 -35.606723 15.256281 -3.591922 3.050797 0.962340 0.049110 0.003290 0.205450 18.345287 17.839781 7.462099 61.614456 7.443188 -11.574858 34.183922 31.886511 3.810452 1.898989 -1.350040 -0.333720 0.354450 0.006070 -0.409030 
-0.677850 17.173190 -1.652440 -13.809375 3.032949 -3.965755 -15.164631 12.569778 1.755305 13.229752 -1.301080 -22.816528 7.789102 3.343931 20.442004 -0.867542 3.722819 3.391522 0.509750 -0.053190 0.465740 18.364933 -9.138439 5.803563 -11.388370 11.864139 -36.919883 57.246377 -41.914130 48.055751 -3.100891 -13.197880 0.505777 -0.034750 0.253240 0.202450 -3.695168 -1.480129 -9.059572 1.518115 1.017550 25.177197 -6.356761 2.748607 0.787167 1.757876 5.224115 -12.865473 8.290240 -1.677157 50.120727 7.913340 0.587680 -10.447750 -22.199585 -20.136198 6.760389 -36.325436 -2.749108 -7.199976 -64.046900 -35.373598 15.075795 -3.570621 3.040912 0.991020 0.034270 0.026170 0.203300 18.614453 18.301347 7.699341 61.600973 7.171598 -11.884619 33.695763 32.194635 3.717500 1.893687 -1.336328 -0.335110 0.354350 -0.001170 -0.420360 
-0.697500 17.167020 -1.654360 -13.335253 3.408875 -3.605302 -15.185585 12.521152 1.858641 14.040079 -1.386606 -23.478715 6.125026 3.856546 20.671716 -0.877079 3.835481 3.342783 0.504280 -0.063710 0.462970 18.346644 -9.107069 5.746313 -12.259821 11.474345 -36.598159 57.168921 -40.689645 46.703507 -3.023305 -12.935722 0.560910 -0.034810 0.258070 0.197930 -3.642530 -1.526202 -9.081701 0.836901 1.134508 25.186191 -6.267376 2.758720 0.717901 1.715462 4.992647 -12.916831 7.729427 -1.446045 50.005883 7.907500 0.556730 -10.806060 -22.165325 -20.249158 6.744127 -36.525776 -2.787193 -7.244683 -63.679795 -35.021508 14.676247 -3.565817 3.023757 1.006270 0.030130 0.026280 0.204060 18.700589 18.608186 7.831885 61.700900 6.997383 -12.078655 33.156228 32.188092 3.575171 1.886896 -1.320197 -0.349760 0.367770 0.005060 -0.424570 
-0.715080 17.149690 -1.653200 -12.754882 3.396260 -3.124542 -15.215638 12.463220 1.992496 14.918213 -1.452920 -24.514184 4.542619 4.497042 21.715440 -0.862093 4.064536 3.240675 0.501660 -0.067160 0.454190 18.326289 -9.060395 5.671300 -13.093907 11.255208 -36.200208 56.206999 -38.883771 45.492232 -2.924393 -12.640674 0.615468 -0.033830 0.257320 0.197710 -3.571783 -1.583199 -9.104846 0.126982 1.352713 24.967590 -6.013812 2.836204 0.578000 1.667125 4.671547 -12.839058 6.961925 -1.074221 49.709291 7.803070 0.566680 -10.912980 -22.208952 -20.028787 6.641584 -36.902770 -2.733146 -7.266206 -62.813217 -34.386031 13.984818 -3.557733 3.028021 1.010220 0.025120 0.024910 0.206920 18.908134 18.657832 7.835189 61.610447 6.788400 -12.110500 32.584787 31.952439 3.438402 1.886421 -1.319752 -0.353770 0.365060 0.008180 -0.423580 
-0.729190 17.112780 -1.645540 -11.860454 3.429635 -2.280856 -15.270654 12.373994 2.187950 15.477789 -1.679734 -26.221561 3.137936 5.226076 23.479026 -0.827798 4.384705 3.108408 0.487270 -0.072420 0.429900 18.296225 -8.977280 5.563407 -14.168725 10.851423 -35.977110 54.443082 -36.566010 44.173346 -2.770288 -12.270948 0.700806 -0.030720 0.270660 0.180120 -3.454543 -1.699420 -9.112272 -0.916718 1.571160 24.287624 -5.362706 2.772071 0.539323 1.570278 4.148100 -12.457132 5.740946 -0.561203 48.274306 7.476430 0.453470 -10.715350 -22.004243 -19.258028 6.335356 -37.841572 -2.970822 -7.175324 -61.652849 -33.620475 13.213388 -3.569654 3.028958 0.982500 0.036020 -0.003340 0.207180 19.028154 18.254332 7.627340 61.414156 6.630549 -11.926743 32.238565 31.494205 3.350605 1.889223 -1.326421 -0.359510 0.367700 0.013870 -0.416090 
